# xmcd CD database file
#
# Track frame offsets:
#	150
#	12788
#	25520
#	38652
#	50440
#	62864
#	75280
#	88335
#	101396
#	114406
#	125188
#	137236
#	151149
#	161999
#	173685
#	188219
#	201785
#	214369
#	227416
#	241432
#	252874
#	263766
#	277016
#	287971
#	296559
#	307796
#	317948
#	326729
#	337016
#
# Disc length: 4602 seconds
#
# Revision: 0
# Processed by: cddbd v1.5.2PL0 Copyright (c) Steve Scherf et al.
# Submitted via: CDex 1.51
#
DISCID=a511f81d
DTITLE=Amos milburn - Let's have a party!
DYEAR=1900
DGENRE=Jazz
TTITLE0=I'M GONNA TELL MY MAMA
TTITLE1=SAX,SHACK,BOOGE
TTITLE2=BAD,BAD,WHISKY
TTITLE3=LET'S ROCKA A WHILE
TTITLE4=TEARS TEARS TEARS
TTITLE5=I LOVE YOU ANYWAY
TTITLE6=AIN'T NOTHING SHAKING
TTITLE7=JUST ONE MORE DRINK
TTITLE8=FLYING HOME
TTITLE9=THINKING AND DRINKING
TTITLE10=LONG , LONG DAY
TTITLE11=GREYHOUND
TTITLE12=I'M STILL A FOOL FOR YOU
TTITLE13=ROCK, ROCK, ROCK
TTITLE14=ONE SCOTCH, ONE BOURBON, ONE BEER
TTITLE15=GOOD, GOOD WHISKEY
TTITLE16=LET ME GO HOME WHISKEY
TTITLE17=LET'S HAVE A PARTY
TTITLE18=MILK AND WATER
TTITLE19=I DONE DONE IT
TTITLE20=ONE TWO, THREE EVERYBODY
TTITLE21=VICIOUS, VICIOUS VODKA
TTITLE22=HOUSE PARTY
TTITLE23=JUICE, JUICE. JUICE
TTITLE24=CHICKEN SHAK BOOGIE
TTITLE25=EVERY DAY OF THE WEEK
TTITLE26=SHAKE, SHAKE
TTITLE27=SOFT PILLOW
TTITLE28=WE TEENAGERS KNOW WHAT WE WANT
EXTD=
EXTT0=
EXTT1=
EXTT2=
EXTT3=
EXTT4=
EXTT5=
EXTT6=
EXTT7=
EXTT8=
EXTT9=
EXTT10=
EXTT11=
EXTT12=
EXTT13=
EXTT14=
EXTT15=
EXTT16=
EXTT17=
EXTT18=
EXTT19=
EXTT20=
EXTT21=
EXTT22=
EXTT23=
EXTT24=
EXTT25=
EXTT26=
EXTT27=
EXTT28=
PLAYORDER=
